# xmcd CD database file
#
# Track frame offsets:
#	182
#	12397
#	24350
#	36942
#	50142
#	62770
#	74492
#	87852
#	100630
#	113245
#	125662
#	138320
#	150925
#	163440
#	176322
#	188817
#	201757
#	215087
#
# Disc length: 3032 seconds
#
# Revision: 0
# Processed by: cddbd v1.4PL0 Copyright (c) Steve Scherf et al.
# Submitted via: CDex 1.40Release
#
DISCID=000bd612
DTITLE=Hank Williams - Legend
DYEAR=1998
DGENRE=Country
TTITLE0=I'll Be A Bachelor Till I Die
TTITLE1=I'm Satisfied With You
TTITLE2=Fly Trouble
TTITLE3=I'm A Long Gone Daddy
TTITLE4=My Sweet Love Ain't Around
TTITLE5=A Mansion On The Hill
TTITLE6=On The Banks Of The Old Pontchartrain
TTITLE7=Rootie Tootie
TTITLE8=Honky Tonkin'
TTITLE9=The Blues Come Around
TTITLE10=I Saw The Light
TTITLE11=Move It On Over
TTITLE12=(Last Night) I Heard You Crying In Your Sleep
TTITLE13=Pan American
TTITLE14=My Love For You (Has Turned To Hate)
TTITLE15=I Don't Care (If Tomorrow Never Comes)
TTITLE16=Calling You
TTITLE17=Lovesick Blues
EXTD=YEAR: 1998 ID3G: 2
EXTT0=
EXTT1=
EXTT2=
EXTT3=
EXTT4=
EXTT5=
EXTT6=
EXTT7=
EXTT8=
EXTT9=
EXTT10=
EXTT11=
EXTT12=
EXTT13=
EXTT14=
EXTT15=
EXTT16=
EXTT17=
PLAYORDER=
